<svg width="29" height="21" viewBox="0 0 29 21" fill="none" xmlns="http://www.w3.org/2000/svg">
<path d="M0 1.5C0 0.671573 0.671573 0 1.5 0H27.5C28.3284 0 29 0.671573 29 1.5C29 2.32843 28.3284 3 27.5 3H1.5C0.671573 3 0 2.32843 0 1.5Z" fill="#F9F9F9"/>
<path d="M0 10.5C0 9.67157 0.671573 9 1.5 9H27.5C28.3284 9 29 9.67157 29 10.5C29 11.3284 28.3284 12 27.5 12H1.5C0.671573 12 0 11.3284 0 10.5Z" fill="#F9F9F9"/>
<path d="M9 19.5C9 18.6716 9.67157 18 10.5 18H27.5C28.3284 18 29 18.6716 29 19.5C29 20.3284 28.3284 21 27.5 21H10.5C9.67157 21 9 20.3284 9 19.5Z" fill="#F9F9F9"/>
</svg>
