<svg width="21" height="22" viewBox="0 0 21 22" fill="none" xmlns="http://www.w3.org/2000/svg">
<path d="M10.2422 10.8633C13.0312 10.8633 15.3047 8.37891 15.3047 5.35547C15.3047 2.35547 13.043 0 10.2422 0C7.46484 0 5.17969 2.40234 5.17969 5.37891C5.19141 8.39062 7.45312 10.8633 10.2422 10.8633ZM10.2422 9.09375C8.53125 9.09375 7.06641 7.45312 7.06641 5.37891C7.06641 3.33984 8.50781 1.76953 10.2422 1.76953C11.9883 1.76953 13.418 3.31641 13.418 5.35547C13.418 7.42969 11.9648 9.09375 10.2422 9.09375ZM2.87109 21.7031H17.6016C19.5469 21.7031 20.4727 21.1172 20.4727 19.8281C20.4727 16.7578 16.5938 12.3164 10.2422 12.3164C3.87891 12.3164 0 16.7578 0 19.8281C0 21.1172 0.925781 21.7031 2.87109 21.7031ZM2.32031 19.9336C2.01562 19.9336 1.88672 19.8516 1.88672 19.6055C1.88672 17.6836 4.86328 14.0859 10.2422 14.0859C15.6094 14.0859 18.5859 17.6836 18.5859 19.6055C18.5859 19.8516 18.4688 19.9336 18.1641 19.9336H2.32031Z" fill="black"/>
</svg>
