<svg width="17" height="18" viewBox="0 0 17 18" fill="none" xmlns="http://www.w3.org/2000/svg">
<path fill-rule="evenodd" clip-rule="evenodd" d="M8.22453 11.567L13.6542 17.416C13.9423 17.7263 14.3331 17.9006 14.7406 17.9006C15.148 17.9006 15.5388 17.7263 15.8269 17.416C16.115 17.1056 16.2769 16.6848 16.2769 16.2459C16.2769 15.8071 16.115 15.3862 15.8269 15.0759L10.3952 9.22802L15.8259 3.38012C15.9685 3.22647 16.0816 3.04408 16.1587 2.84335C16.2359 2.64263 16.2755 2.4275 16.2755 2.21026C16.2755 1.99302 16.2357 1.77792 16.1584 1.57723C16.0812 1.37655 15.968 1.19421 15.8254 1.04063C15.6827 0.887056 15.5134 0.765246 15.327 0.682159C15.1406 0.599072 14.9409 0.556333 14.7392 0.556384C14.5375 0.556436 14.3377 0.599275 14.1514 0.682457C13.9651 0.765639 13.7958 0.887535 13.6532 1.04118L8.22453 6.88908L2.79485 1.04118C2.65324 0.883128 2.48382 0.757028 2.29648 0.670243C2.10914 0.583458 1.90763 0.537725 1.70371 0.535714C1.49978 0.533702 1.29753 0.575452 1.10874 0.658528C0.919958 0.741603 0.748427 0.86434 0.604156 1.01958C0.459885 1.17481 0.345764 1.35944 0.268452 1.56269C0.19114 1.76593 0.152185 1.98373 0.15386 2.20336C0.155536 2.423 0.197807 2.64007 0.278209 2.84192C0.358611 3.04377 0.475533 3.22636 0.622152 3.37902L6.05388 9.22802L0.623177 15.0759C0.33506 15.3862 0.173197 15.8071 0.173197 16.2459C0.173197 16.6848 0.33506 17.1056 0.623177 17.416C0.911294 17.7263 1.30206 17.9006 1.70952 17.9006C2.11698 17.9006 2.50775 17.7263 2.79587 17.416L8.22453 11.5659V11.567Z" fill="black"/>
</svg>
