<svg width="70" height="70" viewBox="0 0 70 70" fill="none" xmlns="http://www.w3.org/2000/svg">
<g clip-path="url(#clip0_199_917)">
<path d="M11.6667 39.4479L19.0312 32.0833L11.6667 24.7187L4.30208 32.0833L11.6667 39.4479ZM51.0417 37.9167L58.3333 26.25L65.625 37.9167H51.0417ZM35 35C32.5694 35 30.5035 34.1493 28.8021 32.4479C27.1007 30.7465 26.25 28.6806 26.25 26.25C26.25 23.7708 27.1007 21.6927 28.8021 20.0156C30.5035 18.3385 32.5694 17.5 35 17.5C37.4792 17.5 39.5573 18.3385 41.2344 20.0156C42.9115 21.6927 43.75 23.7708 43.75 26.25C43.75 28.6806 42.9115 30.7465 41.2344 32.4479C39.5573 34.1493 37.4792 35 35 35ZM35 23.3333C34.1736 23.3333 33.4809 23.6128 32.9219 24.1719C32.3628 24.7309 32.0833 25.4236 32.0833 26.25C32.0833 27.0764 32.3628 27.7691 32.9219 28.3281C33.4809 28.8872 34.1736 29.1667 35 29.1667C35.8264 29.1667 36.5191 28.8872 37.0781 28.3281C37.6371 27.7691 37.9167 27.0764 37.9167 26.25C37.9167 25.4236 37.6371 24.7309 37.0781 24.1719C36.5191 23.6128 35.8264 23.3333 35 23.3333ZM0 52.5V47.9062C0 45.7674 1.0816 44.0538 3.24479 42.7656C5.40799 41.4774 8.21528 40.8333 11.6667 40.8333C12.2986 40.8333 12.9062 40.8455 13.4896 40.8698C14.0729 40.8941 14.6319 40.9549 15.1667 41.0521C14.4861 42.0243 13.9757 43.0694 13.6354 44.1875C13.2951 45.3056 13.125 46.4965 13.125 47.7604V52.5H0ZM17.5 52.5V47.7604C17.5 44.6007 19.1163 42.0486 22.349 40.1042C25.5816 38.1597 29.7986 37.1875 35 37.1875C40.25 37.1875 44.4792 38.1597 47.6875 40.1042C50.8958 42.0486 52.5 44.6007 52.5 47.7604V52.5H17.5ZM58.3333 40.8333C61.8333 40.8333 64.6528 41.4774 66.7917 42.7656C68.9305 44.0538 70 45.7674 70 47.9062V52.5H56.875V47.7604C56.875 46.4965 56.717 45.3056 56.401 44.1875C56.0851 43.0694 55.6111 42.0243 54.9792 41.0521C55.5139 40.9549 56.0608 40.8941 56.6198 40.8698C57.1788 40.8455 57.75 40.8333 58.3333 40.8333ZM35 43.0208C32.2292 43.0208 29.75 43.3854 27.5625 44.1146C25.375 44.8438 24.0868 45.6944 23.6979 46.6667H46.375C45.9375 45.6944 44.6371 44.8438 42.474 44.1146C40.3108 43.3854 37.8194 43.0208 35 43.0208Z" fill="#F9F9F9"/>
</g>
<defs>
<clipPath id="clip0_199_917">
<rect width="70" height="70" fill="white"/>
</clipPath>
</defs>
</svg>
