<svg width="24" height="24" viewBox="0 0 24 24" fill="none" xmlns="http://www.w3.org/2000/svg">
<path d="M13.0281 2.00099C13.7578 1.99819 14.4876 2.00552 15.2171 2.02299L15.4111 2.02999C15.6351 2.03799 15.8561 2.04799 16.1231 2.05999C17.1871 2.10999 17.9131 2.27799 18.5501 2.52499C19.2101 2.77899 19.7661 3.12299 20.3221 3.67899C20.8305 4.17859 21.2239 4.78293 21.4751 5.44999C21.7221 6.08699 21.8901 6.81399 21.9401 7.87799C21.9521 8.14399 21.9621 8.36599 21.9701 8.58999L21.9761 8.78399C21.9939 9.51318 22.0015 10.2426 21.9991 10.972L22.0001 11.718V13.028C22.0026 13.7577 21.9949 14.4875 21.9771 15.217L21.9711 15.411C21.9631 15.635 21.9531 15.856 21.9411 16.123C21.8911 17.187 21.7211 17.913 21.4751 18.55C21.2247 19.2177 20.8312 19.8226 20.3221 20.322C19.8221 20.8303 19.2174 21.2237 18.5501 21.475C17.9131 21.722 17.1871 21.89 16.1231 21.94C15.8561 21.952 15.6351 21.962 15.4111 21.97L15.2171 21.976C14.4876 21.9938 13.7578 22.0014 13.0281 21.999L12.2821 22H10.9731C10.2434 22.0025 9.51361 21.9948 8.78409 21.977L8.59009 21.971C8.3527 21.9624 8.11536 21.9524 7.87809 21.941C6.81409 21.891 6.08809 21.721 5.45009 21.475C4.78277 21.2243 4.17833 20.8308 3.67909 20.322C3.17013 19.8223 2.77631 19.2175 2.52509 18.55C2.27809 17.913 2.11009 17.187 2.06009 16.123C2.04895 15.8857 2.03895 15.6484 2.03009 15.411L2.02509 15.217C2.00665 14.4875 1.99832 13.7577 2.00009 13.028V10.972C1.9973 10.2426 2.00463 9.51318 2.02209 8.78399L2.02909 8.58999C2.03709 8.36599 2.04709 8.14399 2.05909 7.87799C2.10909 6.81299 2.27709 6.08799 2.52409 5.44999C2.77546 4.78261 3.17005 4.17843 3.68009 3.67999C4.17898 3.17074 4.78305 2.77656 5.45009 2.52499C6.08809 2.27799 6.81309 2.10999 7.87809 2.05999L8.59009 2.02999L8.78409 2.02499C9.51327 2.00656 10.2427 1.99823 10.9721 1.99999L13.0281 2.00099ZM12.0001 7.00099C11.3376 6.99162 10.6798 7.11401 10.0651 7.36105C9.45029 7.6081 8.89074 7.97486 8.41893 8.44004C7.94713 8.90522 7.57249 9.45952 7.31678 10.0707C7.06106 10.682 6.92938 11.3379 6.92938 12.0005C6.92938 12.663 7.06106 13.319 7.31678 13.9302C7.57249 14.5414 7.94713 15.0958 8.41893 15.5609C8.89074 16.0261 9.45029 16.3929 10.0651 16.6399C10.6798 16.887 11.3376 17.0094 12.0001 17C13.3262 17 14.5979 16.4732 15.5356 15.5355C16.4733 14.5978 17.0001 13.3261 17.0001 12C17.0001 10.6739 16.4733 9.40213 15.5356 8.46445C14.5979 7.52677 13.3262 7.00099 12.0001 7.00099ZM12.0001 9.00099C12.3986 8.99364 12.7946 9.06578 13.1649 9.21319C13.5352 9.3606 13.8724 9.58033 14.1569 9.85953C14.4413 10.1387 14.6673 10.4718 14.8215 10.8393C14.9758 11.2068 15.0553 11.6014 15.0554 12C15.0554 12.3986 14.9761 12.7931 14.8219 13.1607C14.6678 13.5283 14.4419 13.8614 14.1576 14.1407C13.8732 14.42 13.5361 14.6399 13.1658 14.7874C12.7955 14.9349 12.3996 15.0072 12.0011 15C11.2054 15 10.4424 14.6839 9.87977 14.1213C9.31716 13.5587 9.00109 12.7956 9.00109 12C9.00109 11.2043 9.31716 10.4413 9.87977 9.87867C10.4424 9.31606 11.2054 8.99999 12.0011 8.99999L12.0001 9.00099ZM17.2501 5.50099C16.9275 5.5139 16.6224 5.65114 16.3987 5.88396C16.175 6.11678 16.0501 6.42712 16.0501 6.74999C16.0501 7.07285 16.175 7.38319 16.3987 7.61601C16.6224 7.84884 16.9275 7.98607 17.2501 7.99899C17.5816 7.99899 17.8996 7.86729 18.134 7.63287C18.3684 7.39845 18.5001 7.08051 18.5001 6.74899C18.5001 6.41747 18.3684 6.09952 18.134 5.8651C17.8996 5.63068 17.5816 5.49899 17.2501 5.49899V5.50099Z" fill="#1C1C1A"/>
</svg>
