<svg width="29" height="28" viewBox="0 0 29 28" fill="none" xmlns="http://www.w3.org/2000/svg">
<path d="M18 1.05469H6C3.23858 1.05469 1 3.29326 1 6.05469V21.0547C1 23.8161 3.23858 26.0547 6 26.0547H18" stroke="white" stroke-width="2" stroke-linejoin="round"/>
<path d="M28.7071 13.7618C29.0976 13.3713 29.0976 12.7381 28.7071 12.3476L22.3431 5.98362C21.9526 5.5931 21.3195 5.5931 20.9289 5.98362C20.5384 6.37414 20.5384 7.00731 20.9289 7.39783L26.5858 13.0547L20.9289 18.7115C20.5384 19.1021 20.5384 19.7352 20.9289 20.1258C21.3195 20.5163 21.9526 20.5163 22.3431 20.1258L28.7071 13.7618ZM11 14.0547L28 14.0547V12.0547L11 12.0547V14.0547Z" fill="white"/>
</svg>
