<svg width="70" height="70" viewBox="0 0 70 70" fill="none" xmlns="http://www.w3.org/2000/svg">
<path d="M47.8333 61.25L43.75 57.1667L48.3438 52.5L43.75 47.9063L47.8333 43.75L52.5 48.4167L57.0938 43.75L61.25 47.9063L56.5833 52.5L61.25 57.1667L57.0938 61.25L52.5 56.6563L47.8333 61.25ZM17.5 55.4167C18.3264 55.4167 19.0191 55.1372 19.5781 54.5781C20.1372 54.0191 20.4167 53.3264 20.4167 52.5C20.4167 51.6736 20.1372 50.9809 19.5781 50.4219C19.0191 49.8629 18.3264 49.5833 17.5 49.5833C16.6736 49.5833 15.9809 49.8629 15.4219 50.4219C14.8628 50.9809 14.5833 51.6736 14.5833 52.5C14.5833 53.3264 14.8628 54.0191 15.4219 54.5781C15.9809 55.1372 16.6736 55.4167 17.5 55.4167ZM17.5 61.25C15.0694 61.25 13.0035 60.3993 11.3021 58.6979C9.60069 56.9965 8.75 54.9306 8.75 52.5C8.75 50.0695 9.60069 48.0035 11.3021 46.3021C13.0035 44.6007 15.0694 43.75 17.5 43.75C19.2986 43.75 20.9392 44.2483 22.4219 45.2448C23.9045 46.2413 24.9861 47.5903 25.6667 49.2917C27.5625 48.757 29.1059 47.7118 30.2969 46.1563C31.4878 44.6007 32.0833 42.8264 32.0833 40.8333V29.1667C32.0833 25.132 33.5052 21.6927 36.349 18.849C39.1927 16.0052 42.6319 14.5833 46.6667 14.5833H50.0208L45.4271 9.98959L49.5833 5.83334L61.25 17.5L49.5833 29.1667L45.4271 25.0833L50.0208 20.4167H46.6667C44.2361 20.4167 42.1701 21.2674 40.4687 22.9688C38.7674 24.6702 37.9167 26.7361 37.9167 29.1667V40.8333C37.9167 44.382 36.7743 47.5052 34.4896 50.2031C32.2049 52.9011 29.3125 54.566 25.8125 55.1979C25.2292 56.9965 24.1719 58.4549 22.6406 59.5729C21.1094 60.691 19.3958 61.25 17.5 61.25ZM12.8333 26.25L8.75 22.1667L13.3438 17.5L8.75 12.9063L12.8333 8.75001L17.5 13.4167L22.0938 8.75001L26.25 12.9063L21.5833 17.5L26.25 22.1667L22.0938 26.25L17.5 21.6563L12.8333 26.25Z" fill="#F9F9F9"/>
</svg>
