<svg width="20" height="20" viewBox="0 0 20 20" fill="none" xmlns="http://www.w3.org/2000/svg">
<g clip-path="url(#clip0_346_772)">
<path d="M0 10C0 4.47715 4.47715 0 10 0C15.5228 0 20 4.47715 20 10C20 15.5228 15.5228 20 10 20C4.47715 20 0 15.5228 0 10Z" fill="#1C1C1A"/>
<path d="M11.2573 8.93911L15.0675 4.51001H14.1646L10.8562 8.35573L8.21376 4.51001H5.16602L9.1619 10.3254L5.16602 14.97H6.06898L9.56277 10.9088L12.3533 14.97H15.4011L11.2573 8.93911ZM10.0205 10.3766L9.6157 9.79758L6.39433 5.18974H7.78121L10.3809 8.90841L10.7857 9.48749L14.165 14.3212H12.7781L10.0205 10.3766Z" fill="#F9F9F9"/>
</g>
<defs>
<clipPath id="clip0_346_772">
<rect width="20" height="20" fill="white"/>
</clipPath>
</defs>
</svg>
